<?xml version="1.0" encoding="UTF-8"?>
<svg id="Layer_1" data-name="Layer 1" xmlns="http://www.w3.org/2000/svg" viewBox="0 0 256 256">
  <g id="chat">
    <g>
      <path d="m219.74,51.88h-94.24s0,65.92,0,65.92h51.74c-6.59,11.06-9.02,17.34-7.31,18.83,1.17,1.02,4.27-.19,9.3-3.63,6.89-5.07,13.78-10.13,20.67-15.2h19.83s0-65.92,0-65.92Z" fill="#8ba1a5"/>
      <path d="m171,137.97c-.71,0-1.28-.2-1.73-.58-1.53-1.33-1.96-4.61,6.21-18.59h-50.99V50.88h96.24v67.92h-20.5l-20.41,15.01c-4.12,2.81-6.96,4.16-8.82,4.16Zm-44.5-21.17h52.5l-.9,1.51c-9.19,15.43-7.71,17.39-7.51,17.57.05.04,1.25.96,8.09-3.7l20.91-15.38h19.16v-63.92h-92.24v63.92Z" fill="#231f20"/>
    </g>
    <g>
      <path d="m42.5,100.88h94.24v65.92h-51.74c6.59,11.06,9.02,17.34,7.31,18.83-1.17,1.02-4.27-.19-9.3-3.63-6.89-5.07-13.78-10.13-20.67-15.2h-19.83v-65.92Z" fill="#54a4b7"/>
      <path d="m91.23,186.97c-1.87,0-4.7-1.35-8.79-4.14l-20.43-15.03h-20.5v-67.92h96.24v67.92h-50.99c8.17,13.98,7.74,17.26,6.21,18.59-.45.39-1.02.58-1.73.58Zm-47.73-21.17h19.16l20.93,15.4c6.8,4.64,8.01,3.72,8.06,3.68.2-.17,1.68-2.13-7.51-17.56l-.9-1.51h52.5v-63.92H43.5v63.92Z" fill="#231f20"/>
    </g>
    <circle cx="66.5" cy="132.5" r="4.5" fill="#8ba1a5"/>
    <circle cx="90.5" cy="132.5" r="4.5" fill="#b0c9cc"/>
    <circle cx="114.5" cy="132.5" r="4.5" fill="#5f6b6b"/>
    <g id="hello" opacity="0">
      <path d="m156.73,77.58c-.08.23-.12.57-.12,1.02,0,.17,0,.41.02.74.01.33.02.57.02.74,0,.55-.05,1.38-.14,2.47s-.15,1.92-.15,2.47c0,.42.03,1.05.09,1.89.06.84.09,1.47.09,1.9,0,.23-.08.42-.23.57s-.34.23-.57.23-.41-.08-.56-.23-.23-.35-.23-.57c0-.43-.03-1.06-.09-1.9-.06-.84-.09-1.47-.09-1.89s.01-.81.04-1.23c-.95.02-2.12.16-3.51.42l-3.49.68c0,.5-.05,1.21-.15,2.12s-.15,1.63-.15,2.13c0,.23-.08.42-.23.58-.15.16-.34.24-.57.24s-.42-.08-.57-.24c-.15-.16-.23-.35-.23-.58,0-.59.05-1.46.15-2.63s.15-2.04.15-2.63c0-.3-.01-.76-.03-1.38-.02-.61-.03-1.08-.03-1.39,0-.44.03-1.09.08-1.97.06-.88.08-1.53.08-1.97,0-.23.08-.43.23-.58s.34-.23.57-.23.42.08.57.23.23.35.23.58c0,.44-.03,1.11-.09,1.99-.06.88-.09,1.54-.09,1.99l.05,2.1,3.56-.67c1.42-.27,2.62-.4,3.59-.42.06-.79.09-1.98.09-3.58,0-.42.07-.85.21-1.28.18-.59.44-.89.77-.89.21,0,.4.08.56.23s.25.34.25.58c0,.08-.02.2-.07.34Z" fill="#231f20"/>
      <path d="m166.95,78.11c-.08,0-.16-.01-.26-.04-.94-.27-1.84-.4-2.71-.4-.45,0-.95.04-1.49.12-.54.08-1.12.21-1.74.38.05.36.08.65.08.86,0,.77-.05,1.83-.14,3.17l3.64-.35c1.07-.11,1.72-.17,1.97-.17s.45.08.62.23.25.36.25.62c0,.5-.25.79-.76.85l-1.97.17-3.84.35c-.02.39-.04.76-.05,1.12s-.02.68-.02.98c0,1.22.09,1.94.27,2.16.13.15.57.23,1.3.23.34,0,.86,0,1.55-.03.69-.02,1.21-.03,1.56-.03.11,0,.27-.02.49-.05s.38-.05.48-.05c.59,0,.88.29.88.86,0,.46-.24.74-.71.84-.52.11-1.65.16-3.38.16s-2.82-.23-3.3-.68c-.53-.49-.8-1.63-.8-3.4,0-.35,0-.74.03-1.16.02-.42.04-.88.07-1.36-.06-.13-.09-.26-.09-.41,0-.19.05-.36.16-.51.11-1.6.17-2.78.17-3.54,0-.21-.03-.5-.08-.9-.05-.4-.08-.7-.08-.9,0-.66.28-.99.83-.99.23,0,.43.08.6.24.66-.18,1.29-.31,1.88-.4.59-.09,1.14-.13,1.66-.13,1.34,0,2.42.16,3.22.48.37.15.56.42.56.8,0,.22-.07.42-.21.59-.16.19-.36.28-.6.28Z" fill="#231f20"/>
      <path d="m176.82,88.94c-.62.29-1.61.56-2.95.79-1.23.22-2.24.32-3.02.32-.56,0-.96-.08-1.2-.26-.33-.23-.5-.66-.5-1.28l.17-2.75c.14-2.53.22-5.35.22-8.43,0-.24.08-.44.24-.61.16-.17.35-.25.58-.25s.44.08.59.25c.16.17.24.37.24.61,0,3.13-.08,5.97-.22,8.53l-.11,1.26c-.04.46-.06.87-.05,1.22,1.44.02,3.27-.32,5.48-1.02.09-.03.18-.04.27-.04.24,0,.44.09.6.28.14.17.21.37.21.59,0,.35-.18.62-.53.78Z" fill="#231f20"/>
      <path d="m186.19,88.94c-.62.29-1.61.56-2.95.79-1.23.22-2.24.32-3.02.32-.56,0-.96-.08-1.2-.26-.33-.23-.5-.66-.5-1.28l.17-2.75c.14-2.53.22-5.35.22-8.43,0-.24.08-.44.24-.61.16-.17.35-.25.58-.25s.44.08.59.25c.16.17.24.37.24.61,0,3.13-.08,5.97-.22,8.53l-.11,1.26c-.04.46-.06.87-.05,1.22,1.44.02,3.27-.32,5.48-1.02.09-.03.18-.04.27-.04.24,0,.44.09.6.28.14.17.21.37.21.59,0,.35-.18.62-.53.78Z" fill="#231f20"/>
      <path d="m193.7,89.79c-1.56,0-2.88-.47-3.97-1.4-1.15-1-1.73-2.28-1.73-3.85,0-1.92.57-3.66,1.7-5.22,1.27-1.74,2.85-2.61,4.74-2.61s3.17.41,4.06,1.23c.92.85,1.39,2.2,1.39,4.04s-.52,3.64-1.56,5.18c-1.2,1.76-2.74,2.64-4.63,2.64Zm.75-11.38c-1.36,0-2.5.67-3.45,2.03-.87,1.24-1.3,2.61-1.3,4.1,0,1.07.4,1.94,1.19,2.61.76.63,1.7.95,2.81.95,1.34,0,2.45-.68,3.33-2.03.78-1.21,1.17-2.57,1.17-4.08,0-1.32-.3-2.25-.89-2.79-.56-.52-1.52-.77-2.86-.77Z" fill="#231f20"/>
    </g>
  </g>
</svg>