<?xml version="1.0" encoding="UTF-8"?>
<svg id="Layer_1" data-name="Layer 1" xmlns="http://www.w3.org/2000/svg" viewBox="0 0 256 256">
  <g id="face2">
    <path d="m229.25,116.26c-2.12,50.15-37.74,122-97.28,123.73-58.3,1.69-98.33-65.06-104.05-110.48-1.32-10.45-6.27-49.8,17.41-79.05,2.48-3.07,4.58-5.15,6.36-6.92C85.58,9.95,129.61,10.22,129.61,10.22c5.55.05,53.45,1.1,81.7,39.92,19.21,26.4,18.41,55.23,17.95,66.11Z" fill="#e0b990" stroke="#231f20" stroke-miterlimit="10"/>
    <path d="m210.92,50.5c-.5-.94-1.52-2.8-3-5-11.47-17.09-30.01-24.38-38.69-27.79-4.43-1.74-9.27-3.21-9.27-3.21-2.89-.87-6.83-2.06-11.99-3-2.96-.54-11.49-2.05-20.86-1.39-1.38.1-3.56.22-7.9.76-.89.11-3.44.29-7.06.88-5.07.82-8.84,1.89-12.25,2.92-15.24,4.59-23.72,9.11-23.72,9.11-5.65,2.9-20.13,10.56-31.79,26.72-5.73,7.94-9.03,15.51-10.97,21-.33,1.33-.66,2.67-1,4,7.59-4.41,13.44-4.96,17.42-4.63,3.24.27,8.58,1.69,14.05.76,1.83-.31,4.36-.77,7.02-2.28,3.54-2.01,4.09-4.06,6.15-6.08,3.97-3.89,10.16-4.95,15.48-5.27,9.86-.6,15.95,7.03,24.9,9.83,25.08,7.85,49.43-10.25,50.92-11.39,2.05-1.52,4.1-3.04,6.15-4.56.29.35.75.85,1.38,1.39,2.02,1.73,4.82,2.94,12.11,3.23,6.53.26,9.79.38,13.96-1,4.14-1.37,7.14-3.48,8.97-5Z" fill="#483a31" stroke="#231f20" stroke-miterlimit="10"/>
    <ellipse cx="179.67" cy="103.98" rx="27.39" ry="14.64" fill="#fff" stroke="#231f20" stroke-miterlimit="10" stroke-width=".75"/>
    <ellipse cx="78.61" cy="103.98" rx="27.39" ry="14.64" fill="#fff" stroke="#231f20" stroke-miterlimit="10" stroke-width=".75"/>
    <circle cx="78.66" cy="104.45" r="5.67"/>
    <circle cx="179.67" cy="104.45" r="5.67"/>
    <path id="mouth2" d="m107.39,188.16c-.89-.12,10.65-.35,22.26-.36,13.46-.02,26.18.24,25.3.36-1.53.22-45.93.22-47.56,0Z" fill="none" stroke="#231f20" stroke-miterlimit="10" stroke-width="2"/>
    <g id="ang" opacity="0">
      <path d="m86.73,212.1l-3.66-1.61c9.21-20.92,30.77-38.08,51.27-40.8,9.93-1.32,18.87.92,25.18,6.32,5.9,5.05,9.13,12.38,9.33,21.19l-.15,2.53c-6.39-3.14-18.65-8.05-34.5-7.5-25.62.88-42.63,15.41-47.47,19.86Z" fill="#fff" stroke="#231f20" stroke-miterlimit="10"/>
      <line x1="104" y1="183.66" x2="108.83" y2="197.9" stroke="#231f20" stroke-miterlimit="10" stroke-width=".75"/>
      <line x1="127.2" y1="170.66" x2="132.2" y2="192.24" stroke="#231f20" stroke-miterlimit="10" stroke-width=".75"/>
      <line x1="149.2" y1="170.24" x2="156.2" y2="195.24" stroke="#231f20" stroke-miterlimit="10" stroke-width=".75"/>
    </g>
    <g id="red-ang" opacity="0">
      <path d="m199.64,151.4c-.12-.06-3.04-1.51-3.24-4.59-.17-2.74,1.94-4.43,2.16-4.59" fill="none" stroke="#be1e2d" stroke-miterlimit="10"/>
      <path d="m69.64,154.4c-.12-.06-3.04-1.51-3.24-4.59-.17-2.74,1.94-4.43,2.16-4.59" fill="none" stroke="#be1e2d" stroke-miterlimit="10"/>
      <path d="m199.64,151.4c-.12-.06-3.04-1.51-3.24-4.59-.17-2.74,1.94-4.43,2.16-4.59" fill="none" stroke="#be1e2d" stroke-miterlimit="10"/>
      <path d="m56.13,146.83c.12.06,3.04,1.51,3.24,4.59.17,2.74-1.94,4.43-2.16,4.59" fill="none" stroke="#be1e2d" stroke-miterlimit="10"/>
      <path d="m59.1,157.91c.06-.12,1.51-3.04,4.59-3.24,2.74-.17,4.43,1.94,4.59,2.16" fill="none" stroke="#be1e2d" stroke-miterlimit="10"/>
      <path d="m66.6,142.6c-.05.13-1.39,3.1-4.47,3.41-2.73.28-4.5-1.77-4.67-1.98" fill="none" stroke="#be1e2d" stroke-miterlimit="10"/>
      <path d="m186.13,143.83c.12.06,3.04,1.51,3.24,4.59.17,2.74-1.94,4.43-2.16,4.59" fill="none" stroke="#be1e2d" stroke-miterlimit="10"/>
      <path d="m189.1,154.91c.06-.12,1.51-3.04,4.59-3.24,2.74-.17,4.43,1.94,4.59,2.16" fill="none" stroke="#be1e2d" stroke-miterlimit="10"/>
      <path d="m196.6,139.6c-.05.13-1.39,3.1-4.47,3.41-2.73.28-4.5-1.77-4.67-1.98" fill="none" stroke="#be1e2d" stroke-miterlimit="10"/>
    </g>
  </g>
</svg>