<?xml version="1.0" encoding="UTF-8"?>
<svg id="Layer_1" data-name="Layer 1" xmlns="http://www.w3.org/2000/svg" viewBox="0 0 256 256">
  <g id="face8">
    <path d="m229.25,117.26c-2.12,50.15-37.74,122-97.28,123.73-58.3,1.69-98.33-65.06-104.05-110.48-1.32-10.45-6.27-49.8,17.41-79.05,2.48-3.07,4.58-5.15,6.36-6.92C85.58,10.95,129.61,11.22,129.61,11.22c5.55.05,53.45,1.1,81.7,39.92,19.21,26.4,18.41,55.23,17.95,66.11Z" fill="#e0b990" stroke="#231f20" stroke-miterlimit="10"/>
    <path d="m210.92,51.5c-.5-.94-1.52-2.8-3-5-11.47-17.09-30.01-24.38-38.69-27.79-4.43-1.74-9.27-3.21-9.27-3.21-2.89-.87-6.83-2.06-11.99-3-2.96-.54-11.49-2.05-20.86-1.39-1.38.1-3.56.22-7.9.76-.89.11-3.44.29-7.06.88-5.07.82-8.84,1.89-12.25,2.92-15.24,4.59-23.72,9.11-23.72,9.11-5.65,2.9-20.13,10.56-31.79,26.72-5.73,7.94-9.03,15.51-10.97,21-.33,1.33-.66,2.67-1,4,7.59-4.41,13.44-4.96,17.42-4.63,3.24.27,8.58,1.69,14.05.76,1.83-.31,4.36-.77,7.02-2.28,3.54-2.01,4.09-4.06,6.15-6.08,3.97-3.89,10.16-4.95,15.48-5.27,9.86-.6,15.95,7.03,24.9,9.83,25.08,7.85,49.43-10.25,50.92-11.39,2.05-1.52,4.1-3.04,6.15-4.56.29.35.75.85,1.38,1.39,2.02,1.73,4.82,2.94,12.11,3.23,6.53.26,9.79.38,13.96-1,4.14-1.37,7.14-3.48,8.97-5Z" fill="#483a31" stroke="#231f20" stroke-miterlimit="10"/>
    <path d="m101.53,176h60.2s-4.88,25.75-30.1,25.86c-24.34.1-30.1-25.86-30.1-25.86h0Z" fill="#814227" stroke="#814127" stroke-miterlimit="10" stroke-width="2"/>
    <path d="m110,193c4.61-3.65,13.02-8.98,23.62-8.72,8.18.19,20.28,3.78,20.38,7.63,0,.04,0,.07,0,.1h0s0,.97,0,1c-.03,1.05-1.59,2.04-4,4-.76.62-.96.81-1.2,1-2.13,1.7-13.17,7.98-25.77,4-1.48-.47-3.81-1.34-6.44-3-.91-.41-2.05-1.04-3.22-2-1.71-1.41-2.76-2.94-3.37-4Z" fill="#e9544f"/>
    <path id="h1" d="m90.57,99.72c-2.59-2.59-6.79-2.59-9.38,0l-1.52,1.52-1.52-1.52c-2.59-2.59-6.79-2.59-9.38,0-2.59,2.59-2.59,6.79,0,9.38l1.52,1.52,9.38,9.38,9.38-9.38,1.52-1.52c2.59-2.59,2.59-6.79,0-9.38Z" fill="#ed1a55" stroke="#231f20" stroke-miterlimit="10" stroke-width=".25"/>
    <path id="h1-2" data-name="h1" d="m189.57,99.72c-2.59-2.59-6.79-2.59-9.38,0l-1.52,1.52-1.52-1.52c-2.59-2.59-6.79-2.59-9.38,0-2.59,2.59-2.59,6.79,0,9.38l1.52,1.52,9.38,9.38,9.38-9.38,1.52-1.52c2.59-2.59,2.59-6.79,0-9.38Z" fill="#ed1a55" stroke="#231f20" stroke-miterlimit="10" stroke-width=".25"/>
    <g id="hearts" opacity="0">
      <path id="h1-3" data-name="h1" d="m245.26,23.51c-3.65-3.65-9.56-3.65-13.21,0l-2.14,2.14-2.14-2.14c-3.65-3.65-9.56-3.65-13.21,0-3.65,3.65-3.65,9.56,0,13.21l2.14,2.14,13.21,13.21,13.21-13.21,2.14-2.14c3.65-3.65,3.65-9.56,0-13.21Z" fill="#ed1a55" stroke="#231f20" stroke-miterlimit="10" stroke-width=".25"/>
      <path id="h1-4" data-name="h1" d="m43.57,5.72c-2.59-2.59-6.79-2.59-9.38,0l-1.52,1.52-1.52-1.52c-2.59-2.59-6.79-2.59-9.38,0-2.59,2.59-2.59,6.79,0,9.38l1.52,1.52,9.38,9.38,9.38-9.38,1.52-1.52c2.59-2.59,2.59-6.79,0-9.38Z" fill="#ed1a55" stroke="#231f20" stroke-miterlimit="10" stroke-width=".25"/>
      <path id="h1-5" data-name="h1" d="m28.95,44.93c-1.54-1.54-4.04-1.54-5.58,0l-.9.9-.9-.9c-1.54-1.54-4.04-1.54-5.58,0-1.54,1.54-1.54,4.04,0,5.58l.9.9,5.58,5.58,5.58-5.58.9-.9c1.54-1.54,1.54-4.04,0-5.58Z" fill="#ed1a55" stroke="#231f20" stroke-miterlimit="10" stroke-width=".25"/>
      <path id="h1-6" data-name="h1" d="m247.57,194.72c-2.59-2.59-6.79-2.59-9.38,0l-1.52,1.52-1.52-1.52c-2.59-2.59-6.79-2.59-9.38,0-2.59,2.59-2.59,6.79,0,9.38l1.52,1.52,9.38,9.38,9.38-9.38,1.52-1.52c2.59-2.59,2.59-6.79,0-9.38Z" fill="#ed1a55" stroke="#231f20" stroke-miterlimit="10" stroke-width=".25"/>
      <path id="h1-7" data-name="h1" d="m208.95,235.93c-1.54-1.54-4.04-1.54-5.58,0l-.9.9-.9-.9c-1.54-1.54-4.04-1.54-5.58,0-1.54,1.54-1.54,4.04,0,5.58l.9.9,5.58,5.58,5.58-5.58.9-.9c1.54-1.54,1.54-4.04,0-5.58Z" fill="#ed1a55" stroke="#231f20" stroke-miterlimit="10" stroke-width=".25"/>
      <path id="h1-8" data-name="h1" d="m22.95,165.93c-1.54-1.54-4.04-1.54-5.58,0l-.9.9-.9-.9c-1.54-1.54-4.04-1.54-5.58,0-1.54,1.54-1.54,4.04,0,5.58l.9.9,5.58,5.58,5.58-5.58.9-.9c1.54-1.54,1.54-4.04,0-5.58Z" fill="#ed1a55" stroke="#231f20" stroke-miterlimit="10" stroke-width=".25"/>
      <path id="h1-9" data-name="h1" d="m58.25,218.59c-3.76-3.76-9.85-3.76-13.6,0l-2.2,2.2-2.2-2.2c-3.76-3.76-9.85-3.76-13.6,0-3.76,3.76-3.76,9.85,0,13.6l2.2,2.2,13.6,13.6,13.6-13.6,2.2-2.2c3.76-3.76,3.76-9.85,0-13.6Z" fill="#ed1a55" stroke="#231f20" stroke-miterlimit="10" stroke-width=".25"/>
    </g>
  </g>
</svg>