<?xml version="1.0" encoding="UTF-8"?>
<svg id="Layer_1" data-name="Layer 1" xmlns="http://www.w3.org/2000/svg" viewBox="0 0 256 256">
  <g id="face3">
    <path d="m229.25,116.26c-2.12,50.15-37.74,122-97.28,123.73-58.3,1.69-98.33-65.06-104.05-110.48-1.32-10.45-6.27-49.8,17.41-79.05,2.48-3.07,4.58-5.15,6.36-6.92C85.58,9.95,129.61,10.22,129.61,10.22c5.55.05,53.45,1.1,81.7,39.92,19.21,26.4,18.41,55.23,17.95,66.11Z" fill="#e0b990" stroke="#231f20" stroke-miterlimit="10"/>
    <ellipse cx="179.67" cy="103.98" rx="27.39" ry="14.64" fill="#fff" stroke="#231f20" stroke-miterlimit="10" stroke-width=".75"/>
    <ellipse cx="78.61" cy="103.98" rx="27.39" ry="14.64" fill="#fff" stroke="#231f20" stroke-miterlimit="10" stroke-width=".75"/>
    <circle id="e3" cx="76.66" cy="105.45" r="5.67"/>
    <circle id="e4" cx="177.67" cy="105.45" r="5.67"/>
    <path d="m100.42,195c5.39-9.79,21.37-15.66,36.62-14.21,12.06,1.15,22.19,6.73,25.91,14.21.02,0,.04,0,.04,0,.38-.22-9.49-12.41-25.95-14.2-13.43-1.46-29.38,4.19-36.62,14.21Z" fill="none" stroke="#231f20" stroke-miterlimit="10" stroke-width="2"/>
    <path d="m210.92,50.5c-.5-.94-1.52-2.8-3-5-11.47-17.09-30.01-24.38-38.69-27.79-4.43-1.74-9.27-3.21-9.27-3.21-2.89-.87-6.83-2.06-11.99-3-2.96-.54-11.49-2.05-20.86-1.39-1.38.1-3.56.22-7.9.76-.89.11-3.44.29-7.06.88-5.07.82-8.84,1.89-12.25,2.92-15.24,4.59-23.72,9.11-23.72,9.11-5.65,2.9-20.13,10.56-31.79,26.72-5.73,7.94-9.03,15.51-10.97,21-.33,1.33-.66,2.67-1,4,7.59-4.41,13.44-4.96,17.42-4.63,3.24.27,8.58,1.69,14.05.76,1.83-.31,4.36-.77,7.02-2.28,3.54-2.01,4.09-4.06,6.15-6.08,3.97-3.89,10.16-4.95,15.48-5.27,9.86-.6,15.95,7.03,24.9,9.83,25.08,7.85,49.43-10.25,50.92-11.39,2.05-1.52,4.1-3.04,6.15-4.56.29.35.75.85,1.38,1.39,2.02,1.73,4.82,2.94,12.11,3.23,6.53.26,9.79.38,13.96-1,4.14-1.37,7.14-3.48,8.97-5Z" fill="#483a31" stroke="#231f20" stroke-miterlimit="10"/>
    <g id="drops" opacity="0">
      <path d="m178.61,134.2c-1.75-2.84-2.24-5.77-3.23-8.87-.95,2.92-1.56,5.67-3.15,8.4-1.17,2.01-3.19,4.43-3.19,6.88,0,3.74,2.85,6.77,6.38,6.77s6.38-3.03,6.38-6.77c0-2.34-2.02-4.54-3.18-6.42Z" fill="#7ebac4"/>
      <path d="m76.61,134.2c-1.75-2.84-2.24-5.77-3.23-8.87-.95,2.92-1.56,5.67-3.15,8.4-1.17,2.01-3.19,4.43-3.19,6.88,0,3.74,2.85,6.77,6.38,6.77s6.38-3.03,6.38-6.77c0-2.34-2.02-4.54-3.18-6.42Z" fill="#7ebac4"/>
    </g>
  </g>
</svg>