<?xml version="1.0" encoding="UTF-8"?>
<svg id="Layer_1" data-name="Layer 1" xmlns="http://www.w3.org/2000/svg" viewBox="0 0 256 256">
  <g id="joke">
    <path d="m229.25,119.26c-2.12,50.15-37.74,122-97.28,123.73-58.3,1.69-98.33-65.06-104.05-110.48-1.32-10.45-6.27-49.8,17.41-79.05,2.48-3.07,4.58-5.15,6.36-6.92C85.58,12.95,129.61,13.22,129.61,13.22c5.55.05,53.45,1.1,81.7,39.92,19.21,26.4,18.41,55.23,17.95,66.11Z" fill="#e0b990" stroke="#231f20" stroke-miterlimit="10"/>
    <path d="m210.92,53.5c-.5-.94-1.52-2.8-3-5-11.47-17.09-30.01-24.38-38.69-27.79-4.43-1.74-9.27-3.21-9.27-3.21-2.89-.87-6.83-2.06-11.99-3-2.96-.54-11.49-2.05-20.86-1.39-1.38.1-3.56.22-7.9.76-.89.11-3.44.29-7.06.88-5.07.82-8.84,1.89-12.25,2.92-15.24,4.59-23.72,9.11-23.72,9.11-5.65,2.9-20.13,10.56-31.79,26.72-5.73,7.94-9.03,15.51-10.97,21-.33,1.33-.66,2.67-1,4,7.59-4.41,13.44-4.96,17.42-4.63,3.24.27,8.58,1.69,14.05.76,1.83-.31,4.36-.77,7.02-2.28,3.54-2.01,4.09-4.06,6.15-6.08,3.97-3.89,10.16-4.95,15.48-5.27,9.86-.6,15.95,7.03,24.9,9.83,25.08,7.85,49.43-10.25,50.92-11.39,2.05-1.52,4.1-3.04,6.15-4.56.29.35.75.85,1.38,1.39,2.02,1.73,4.82,2.94,12.11,3.23,6.53.26,9.79.38,13.96-1,4.14-1.37,7.14-3.48,8.97-5Z" fill="#483a31" stroke="#231f20" stroke-miterlimit="10"/>
    <g id="eb1">
      <ellipse id="righte" cx="179.67" cy="106.98" rx="27.39" ry="14.64" fill="#fff" stroke="#231f20" stroke-miterlimit="10" stroke-width=".75"/>
      <ellipse id="lefte" cx="78.61" cy="106.98" rx="27.39" ry="14.64" fill="#fff" stroke="#231f20" stroke-miterlimit="10" stroke-width=".75"/>
      <circle id="eye6" cx="77.66" cy="107.45" r="5.67"/>
      <circle id="eye5" cx="179.67" cy="107.45" r="5.67"/>
    </g>
    <path d="m101.53,178h60.2s-4.88,25.75-30.1,25.86c-24.34.1-30.1-25.86-30.1-25.86h0Z" fill="#814227" stroke="#814127" stroke-miterlimit="10" stroke-width="2"/>
    <path d="m110,195c4.61-3.65,13.02-8.98,23.62-8.72,8.18.19,20.28,3.78,20.38,7.63,0,.04,0,.07,0,.1h0s0,.97,0,1c-.03,1.05-1.59,2.04-4,4-.76.62-.96.81-1.2,1-2.13,1.7-13.17,7.98-25.77,4-1.48-.47-3.81-1.34-6.44-3-.91-.41-2.05-1.04-3.22-2-1.71-1.41-2.76-2.94-3.37-4Z" fill="#e9544f"/>
    <g id="e0" opacity="0">
      <path id="e02" d="m52.39,85.43c1.48,1,32.51,22.01,32.51,22.01l-31.39,21.26" fill="none" stroke="#231f20" stroke-miterlimit="10" stroke-width="4"/>
      <path id="e01" d="m206.9,85.43c-1.48,1-32.51,22.01-32.51,22.01l31.39,21.26" fill="none" stroke="#231f20" stroke-miterlimit="10" stroke-width="4"/>
    </g>
  </g>
</svg>