<?xml version="1.0" encoding="UTF-8"?>
<svg id="Layer_1" data-name="Layer 1" xmlns="http://www.w3.org/2000/svg" viewBox="0 0 256 256">
  <path d="m99.93,21.43c0,.17-.1.32-.28.37l-3.39.86c-.19.05-.39-.07-.44-.26-.04-.2.07-.39.27-.44l3.39-.86c.2-.05.4.07.45.27,0,.03,0,.05.01.07Z" fill="#010101"/>
  <path d="m98.43,14.18c0,.17-.1.33-.27.37l-3.39.86c-.19.05-.39-.07-.44-.26-.04-.2.07-.39.26-.44l3.39-.86c.2-.05.39.07.44.27,0,.03,0,.05.01.07Z" fill="#010101"/>
  <path id="parts" d="m101.58,19.41c1.17-.28,2.28.17,2.48,1.02.2.84-.58,1.75-1.75,2.03-1.17.28-2.29-.17-2.49-1.02-.2-.84.58-1.75,1.75-2.03Z" fill="#794b3e"/>
  <path id="parts-2" data-name="parts" d="m104.46,20.64c.04.97-.83,1.88-2.06,2.18-.64.15-1.29.12-1.83-.1-.58-.24-.97-.66-1.09-1.18-.25-1.06.66-2.14,2.02-2.47.64-.15,1.29-.12,1.83.1.58.24.97.66,1.1,1.18.02.09.03.2.04.29Zm-4.3.57c0,.05,0,.1.02.15.07.29.31.53.66.68.4.16.89.19,1.38.07.94-.23,1.64-.95,1.49-1.59-.07-.29-.31-.53-.66-.68-.4-.16-.89-.19-1.38-.07-.87.21-1.53.84-1.5,1.44Z" fill="#010101"/>
  <path id="parts-3" data-name="parts" d="m100.16,12.23c1.17-.28,2.28.17,2.49,1.02.2.84-.58,1.75-1.75,2.03-1.17.28-2.28-.17-2.49-1.02-.2-.84.58-1.75,1.75-2.03Z" fill="#794b3e"/>
  <path id="parts-4" data-name="parts" d="m103.04,13.45c.04.97-.83,1.88-2.06,2.18-.64.15-1.29.12-1.83-.1-.58-.24-.97-.66-1.1-1.18-.24-1.06.66-2.15,2.02-2.47.64-.15,1.29-.12,1.83.1.58.24.97.66,1.1,1.18.02.09.04.19.04.29Zm-4.3.57c0,.05.01.1.02.15.07.29.31.53.66.68.4.16.89.19,1.38.07.94-.23,1.63-.96,1.49-1.6-.07-.29-.31-.53-.66-.68-.4-.16-.89-.19-1.38-.07-.87.21-1.53.84-1.51,1.44Z" fill="#010101"/>
  <path d="m79.3,19.52c0,.17-.1.32-.28.37l-3.39.86c-.19.05-.39-.07-.44-.26-.05-.2.07-.4.27-.44l3.39-.86c.2-.05.39.07.45.27,0,.03,0,.05.01.08Z" fill="#010101"/>
  <path d="m73.15,19.44c1.17-.28,2.28.17,2.48,1.01.2.84-.58,1.75-1.75,2.03-1.17.28-2.28-.17-2.48-1.01-.2-.84.58-1.75,1.75-2.03Z" fill="#794b3e"/>
  <path d="m76.02,20.66c.04.97-.83,1.88-2.06,2.18-.64.15-1.29.11-1.83-.1-.58-.24-.97-.66-1.09-1.18-.25-1.06.66-2.14,2.02-2.47.64-.15,1.29-.12,1.83.1.58.24.97.66,1.09,1.18.02.09.04.19.04.29Zm-4.3.57s0,.1.02.15c.07.29.31.53.66.68.4.16.89.19,1.38.07.94-.23,1.64-.95,1.48-1.6-.07-.29-.31-.53-.66-.68-.4-.16-.89-.19-1.38-.07-.87.21-1.53.84-1.5,1.44Z" fill="#010101"/>
  <circle cx="80.65" cy="19.29" r=".62" fill="#f4f4f5"/>
  <circle cx="93.02" cy="15.41" r=".62" fill="#f4f4f5"/>
  <g id="guitar">
    <path d="m99.02,151.81s-11.05-8.78-8.82-25.64c2.23-16.86,18.92-24.58,33.72-25.18,14.79-.6,35.4,16.3,28.21,36.51-4.98,8.95-3.69,10.84,2.52,14.23,6.21,3.39,24.29,14.99,15.24,49.37-9.05,34.38-43.08,29.17-53.79,24.35-13.86-6.24-28.91-23.85-16.88-56.65,4.75-8.7,7.09-10.98-.2-17Z" fill="#934721"/>
    <path id="guitar_body" data-name="guitar body" d="m172.7,181.51c.24,5.94-.59,12.57-2.46,19.68-3.1,11.81-9.4,20.05-18.7,24.48-12.76,6.09-28.27,3.4-35.58.11-4.81-2.16-20.55-10.92-21.44-32.75-.3-7.43,1.17-15.62,4.37-24.35.46-.84.87-1.58,1.25-2.27,3.8-6.8,5.12-8.99-1.34-14.32-.08-.06-8.69-7.06-9.22-20.19-.08-1.88.02-3.83.28-5.78,2.21-16.74,18.7-24.87,34.06-25.49,13-.53,29.42,12.09,30.04,27.57.13,3.14-.37,6.31-1.48,9.43-2.21,3.97-3.11,6.41-3.03,8.19.09,2.31,1.81,3.64,5.39,5.6,11.14,6.08,17.32,16.49,17.87,30.1Zm-77.46,11.49c.87,21.41,16.31,30,21.02,32.12,7.19,3.24,22.43,5.88,34.97-.1,9.1-4.34,15.26-12.42,18.31-24.01,1.86-7.05,2.68-13.6,2.44-19.47-.54-13.34-6.59-23.53-17.5-29.49-3.74-2.04-5.66-3.56-5.77-6.21-.08-1.93.85-4.48,3.1-8.52,1.05-2.98,1.54-6.06,1.42-9.1-.62-15.08-16.62-27.38-29.29-26.87-15.05.61-31.21,8.54-33.37,24.86-.25,1.91-.34,3.81-.27,5.66.52,12.8,8.87,19.58,8.95,19.65,3.31,2.73,4.7,4.74,4.79,6.94.09,2.3-1.24,4.69-3.26,8.31-.38.69-.8,1.43-1.22,2.21-3.15,8.59-4.61,16.69-4.31,24.02Z" fill="#010101"/>
    <path d="m123.74,142.64c7.95-.32,14.65,5.75,14.97,13.57.32,7.82-5.87,14.42-13.82,14.74s-14.65-5.75-14.97-13.57c-.32-7.82,5.87-14.42,13.82-14.74Z" fill="#9b7a62"/>
    <path d="m115.69,150.15L83.37,30.91l11.19-3.04,35.61,119.61s-8.67-4.88-14.48,2.67Z" fill="#871719" stroke="#231f20" stroke-miterlimit="10"/>
    <path d="m127.88,195.58c0,.17-.1.32-.27.37-.19.05-.39-.07-.44-.26L84.17,34.42c-.05-.2.06-.39.26-.45.19-.05.39.07.44.26l42.99,161.27s0,.05.01.08Z" fill="#010101"/>
    <path d="m131.31,194.23c0,.17-.1.32-.27.37-.2.05-.4-.06-.45-.25L86.34,33.85c-.06-.2.06-.39.25-.45.19-.05.39.06.44.25l44.25,160.49s.01.06.01.08Z" fill="#010101"/>
    <path d="m134.83,193.11c0,.17-.1.32-.27.37-.19.05-.4-.06-.45-.25L90.51,32.87c-.06-.2.06-.39.25-.45.2-.05.39.06.45.26l43.6,160.35s.01.05.01.08Z" fill="#010101"/>
    <path d="m139.15,191.8c0,.17-.1.32-.27.36-.19.06-.4-.06-.45-.25L93.07,32.12c-.06-.19.06-.39.25-.45.2-.06.4.06.45.25l45.36,159.8s.01.06.01.08Z" fill="#010101"/>
    <path d="m142.73,190.36c0,.16-.1.32-.26.36-.19.06-.4-.05-.45-.25L95.47,31.54c-.05-.19.06-.39.25-.45.2-.06.4.05.46.25l46.54,158.94s.01.06.01.09Z" fill="#010101"/>
    <path d="m101.6,27.73c0,.17-.1.32-.28.37l-3.39.86c-.2.05-.39-.07-.44-.26-.05-.2.07-.39.26-.44l3.39-.86c.19-.05.39.07.44.26,0,.03,0,.05.01.08Z" fill="#010101"/>
    <path id="parts-5" data-name="parts" d="m103.24,25.71c1.17-.28,2.28.17,2.48,1.02.2.84-.58,1.75-1.75,2.03-1.17.28-2.29-.17-2.49-1.01-.2-.84.58-1.75,1.75-2.03Z" fill="#794b3e"/>
    <path id="parts-6" data-name="parts" d="m106.11,26.93c.04.97-.83,1.88-2.06,2.18-.64.15-1.29.12-1.83-.1-.58-.24-.97-.66-1.09-1.18-.25-1.06.66-2.14,2.02-2.47.64-.16,1.29-.12,1.83.1.58.24.97.66,1.1,1.18.02.1.03.2.04.29Zm-4.3.57c0,.05,0,.1.02.15.07.29.31.53.66.68.4.16.89.19,1.38.07.94-.23,1.64-.96,1.49-1.59-.07-.29-.31-.53-.66-.68-.4-.16-.89-.19-1.38-.07-.87.21-1.53.84-1.5,1.44Z" fill="#010101"/>
    <path d="m82.46,33.06c0,.17-.1.32-.28.37l-3.39.86c-.2.05-.39-.07-.44-.27-.04-.2.07-.39.27-.44l3.39-.86c.2-.05.39.07.45.26,0,.03,0,.05.01.08Z" fill="#010101"/>
    <path d="m80.8,26.76c0,.17-.1.33-.27.37l-3.39.86c-.2.05-.39-.07-.44-.26-.04-.2.07-.4.26-.45l3.39-.86c.19-.05.39.07.44.26,0,.03,0,.05.01.07Z" fill="#010101"/>
    <rect x="80.22" y="12.43" width="15.32" height="21.01" transform="translate(-2.92 21.03) rotate(-13.43)" fill="#5b3831"/>
    <path d="m98.21,31.64l-15.61,3.73-5.05-21.14,15.61-3.73,5.05,21.14Zm-15.07,2.85l14.19-3.39-4.71-19.72-14.19,3.39,4.71,19.72Z" fill="#010101"/>
    <path d="m76.22,32.92c1.17-.28,2.28.17,2.49,1.02.2.84-.58,1.75-1.75,2.03-1.17.28-2.28-.17-2.49-1.01-.2-.84.58-1.75,1.75-2.03Z" fill="#794b3e"/>
    <path d="m79.1,34.14c.04.96-.83,1.88-2.06,2.18-.64.15-1.29.12-1.83-.1-.58-.24-.97-.66-1.09-1.18-.25-1.05.66-2.15,2.02-2.47.64-.15,1.29-.12,1.83.1.58.24.97.66,1.1,1.18.02.1.03.19.04.29Zm-4.3.57c0,.05.01.1.02.15.07.29.3.53.66.68.4.16.89.19,1.38.07.94-.23,1.63-.96,1.48-1.6-.07-.29-.31-.53-.66-.68-.4-.16-.89-.19-1.38-.07-.87.21-1.53.84-1.51,1.44Z" fill="#010101"/>
    <path d="m74.57,26.62c1.17-.28,2.28.17,2.49,1.01.2.84-.58,1.75-1.75,2.03-1.17.28-2.28-.17-2.49-1.01-.2-.84.58-1.75,1.75-2.03Z" fill="#794b3e"/>
    <path d="m77.45,27.84c.04.97-.83,1.88-2.06,2.18-.64.15-1.29.12-1.83-.1-.58-.24-.97-.66-1.09-1.18-.25-1.06.66-2.14,2.02-2.47.64-.15,1.29-.11,1.83.1.58.24.97.66,1.1,1.18.02.1.03.2.04.29Zm-4.3.57s.01.1.02.15c.07.29.3.53.66.68.4.16.89.19,1.38.07.94-.23,1.64-.95,1.48-1.59-.07-.29-.31-.53-.66-.68-.4-.16-.89-.19-1.38-.07-.87.21-1.53.84-1.51,1.44Z" fill="#010101"/>
    <rect x="123.98" y="189.69" width="20.6" height="4.97" rx="2" ry="2" transform="translate(311.91 345.18) rotate(165.69)" fill="#a7a7aa"/>
    <circle cx="82.03" cy="26.18" r=".62" fill="#f4f4f5"/>
    <circle cx="94.58" cy="23.17" r=".62" fill="#f4f4f5"/>
    <circle cx="83.07" cy="32.35" r=".62" fill="#f4f4f5"/>
    <circle cx="95.8" cy="29.2" r=".62" fill="#f4f4f5"/>
    <line x1="125.49" y1="194.53" x2="143.42" y2="190.03" fill="none" stroke="#b56128" stroke-miterlimit="10" stroke-width=".25"/>
    <path d="m108.19,207.08c10.79.02,18.2,5.6,18.57,10.39.29,3.74-3.73,6.64-4.96,7.46" fill="none" stroke="#231f20" stroke-miterlimit="10" stroke-width=".75"/>
    <path d="m138.69,130.89c-.31-.63-1.45-3.11-.44-5.35,1.31-2.88,5.8-4.5,10.47-2.67" fill="none" stroke="#231f20" stroke-miterlimit="10" stroke-width=".75"/>
    <g id="note-2">
      <g>
        <line x1="59.22" y1="36.61" x2="59.22" y2="53.15" fill="#1ca3dd" stroke="#231f20" stroke-miterlimit="10"/>
        <ellipse cx="56.5" cy="53.38" rx="2.7" ry="2.02" fill="#1ca3dd" stroke="#231f20" stroke-miterlimit="10"/>
      </g>
      <rect x="39.4" y="35.15" width="19.8" height="1.8" transform="translate(-1.2 1.71) rotate(-1.96)" fill="#fff" stroke="#231f20" stroke-miterlimit="10"/>
      <path d="m39.44,35.29s0,20.68,0,19.41" fill="#1ca3dd" stroke="#231f20" stroke-miterlimit="10"/>
      <ellipse cx="36.7" cy="54.98" rx="2.7" ry="2.02" fill="#1ca3dd" stroke="#231f20" stroke-miterlimit="10"/>
      <rect x="60.4" y="81.15" width="19.8" height="1.8" transform="translate(-2.76 2.45) rotate(-1.96)" fill="#fff" stroke="#231f20" stroke-miterlimit="10"/>
      <path d="m60.44,83.29s0,20.68,0,19.41" fill="#1ca3dd" stroke="#231f20" stroke-miterlimit="10"/>
      <line x1="80.22" y1="82.61" x2="80.22" y2="99.15" fill="#1ca3dd" stroke="#231f20" stroke-miterlimit="10"/>
      <ellipse cx="57.7" cy="102.98" rx="2.7" ry="2.02" fill="#1ca3dd" stroke="#231f20" stroke-miterlimit="10"/>
      <ellipse cx="77.5" cy="99.38" rx="2.7" ry="2.02" fill="#1ca3dd" stroke="#231f20" stroke-miterlimit="10"/>
    </g>
    <g id="note-1">
      <rect x="200.4" y="110.15" width="19.8" height="1.8" transform="translate(-3.67 7.25) rotate(-1.96)" fill="#fff" stroke="#231f20" stroke-miterlimit="10"/>
      <path d="m200.44,112.29s0,20.68,0,19.41" fill="#1ca3dd" stroke="#231f20" stroke-miterlimit="10"/>
      <line x1="220.22" y1="111.61" x2="220.22" y2="128.15" fill="#1ca3dd" stroke="#231f20" stroke-miterlimit="10"/>
      <ellipse cx="197.7" cy="131.98" rx="2.7" ry="2.02" fill="#1ca3dd" stroke="#231f20" stroke-miterlimit="10"/>
      <ellipse cx="217.5" cy="128.38" rx="2.7" ry="2.02" fill="#1ca3dd" stroke="#231f20" stroke-miterlimit="10"/>
      <rect x="127.4" y="43.15" width="19.8" height="1.8" transform="translate(-1.43 4.72) rotate(-1.96)" fill="#fff" stroke="#231f20" stroke-miterlimit="10"/>
      <path d="m127.44,45.29s0,20.68,0,19.41" fill="#1ca3dd" stroke="#231f20" stroke-miterlimit="10"/>
      <line x1="147.22" y1="44.61" x2="147.22" y2="61.15" fill="#1ca3dd" stroke="#231f20" stroke-miterlimit="10"/>
      <ellipse cx="124.7" cy="64.98" rx="2.7" ry="2.02" fill="#1ca3dd" stroke="#231f20" stroke-miterlimit="10"/>
      <ellipse cx="144.5" cy="61.38" rx="2.7" ry="2.02" fill="#1ca3dd" stroke="#231f20" stroke-miterlimit="10"/>
    </g>
  </g>
</svg>