<?xml version="1.0" encoding="UTF-8"?>
<svg id="Layer_1" data-name="Layer 1" xmlns="http://www.w3.org/2000/svg" viewBox="0 0 256 256">
  <rect x="80.64" y="36" width="92.71" height="177" rx="12" ry="12" fill="#fff" stroke="#231f20" stroke-miterlimit="10" stroke-width="5"/>
  <rect x="109.14" y="47.5" width="36" height="4" rx="2" ry="2" fill="#fff" stroke="#231f20" stroke-miterlimit="10" stroke-width="5"/>
  <rect x="104.14" y="202.5" width="45" height="2" rx="1" ry="1" fill="#aeadae" stroke="#afadae" stroke-miterlimit="10"/>
  <g id="lock">
    <rect x="104.5" y="123.21" width="46.5" height="37.78" rx="2.56" ry="2.56" fill="none" stroke="#231f20" stroke-miterlimit="10" stroke-width="3"/>
    <path d="m113.5,105.5c.89-.98,7.35-7.9,15.7-7,9.27,1.01,17.67,11.32,16.93,24.61" fill="none" stroke="#231f20" stroke-miterlimit="10" stroke-width="3"/>
  </g>
  <path id="locked" d="m109.2,122.84c-1.73-14.32,9.08-25.14,18.44-24.84,9.04.29,18.85,11.05,17.08,24.78" fill="none" opacity="0" stroke="#231f20" stroke-miterlimit="10" stroke-width="3"/>
  <path id="checked" d="m126.05,150c-.31,0-.6-.14-.6-.14-.19-.09-.35-.23-.48-.4l-6.18-8.36c-.44-.6-.32-1.45.28-1.9.6-.45,1.44-.32,1.89.28l4.95,6.7c1.62-2.79,3.15-4.99,4.3-6.53,4.68-6.28,10.49-11.37,11.05-10.88.33.29-.99,2.74-8.22,12.18-2.97,4.47-5.22,7.68-5.8,8.35-.53.62-1.04.71-1.18.71Z" fill="#006838" opacity="0"/>
  <path d="m110.63,105.28c3.22,0,3.22-5,0-5s-3.22,5,0,5h0Z" fill="#fff"/>
  <path d="m110.59,105.41c3.22,0,3.22-5,0-5s-3.22,5,0,5h0Z" fill="#fff"/>
  <path d="m110.59,105.46c3.22,0,3.22-5,0-5s-3.22,5,0,5h0Z" fill="#fff"/>
  <path d="m110.59,105.54c3.22,0,3.22-5,0-5s-3.22,5,0,5h0Z" fill="#fff"/>
  <path d="m110.72,105.32c3.22,0,3.22-5,0-5s-3.22,5,0,5h0Z" fill="#fff"/>
  <path d="m110.94,99.93c-3.22,0-3.22,5,0,5s3.22-5,0-5Z" fill="#fff"/>
  <path d="m111.03,104.83c3.22,0,3.22-5,0-5s-3.22,5,0,5h0Z" fill="#fff"/>
  <path d="m111,104.89c3.22,0,3.22-5,0-5s-3.22,5,0,5h0Z" fill="#fff"/>
  <path d="m110.75,105.39c3.22,0,3.22-5,0-5s-3.22,5,0,5h0Z" fill="#fff"/>
  <path d="m110.8,105.26c3.22,0,3.22-5,0-5s-3.22,5,0,5h0Z" fill="#fff"/>
  <path d="m110.83,105.26c3.22,0,3.22-5,0-5s-3.22,5,0,5h0Z" fill="#fff"/>
  <path d="m110.94,104.97c3.22,0,3.22-5,0-5s-3.22,5,0,5h0Z" fill="#fff"/>
  <path d="m110.93,105c3.22,0,3.22-5,0-5s-3.22,5,0,5h0Z" fill="#fff"/>
  <path d="m110.93,105.05c3.22,0,3.22-5,0-5s-3.22,5,0,5h0Z" fill="#fff"/>
  <path d="m110.93,105.05c3.22,0,3.22-5,0-5s-3.22,5,0,5h0Z" fill="#fff"/>
  <path d="m110.99,104.95c3.22,0,3.22-5,0-5s-3.22,5,0,5h0Z" fill="#fff"/>
  <path d="m110.62,105.61c3.22,0,3.22-5,0-5s-3.22,5,0,5h0Z" fill="#fff"/>
  <path d="m111.36,104.44c3.22,0,3.22-5,0-5s-3.22,5,0,5h0Z" fill="#fff"/>
  <path d="m111.43,104.44c3.22,0,3.22-5,0-5s-3.22,5,0,5h0Z" fill="#fff"/>
  <path d="m110.96,105.1c3.22,0,3.22-5,0-5s-3.22,5,0,5h0Z" fill="#fff"/>
</svg>