<?xml version="1.0" encoding="UTF-8"?>
<svg id="Layer_1" data-name="Layer 1" xmlns="http://www.w3.org/2000/svg" viewBox="0 0 256 256">
  <path d="m229.25,121.16c-2.12,50.15-37.74,122-97.28,123.73-58.3,1.69-98.33-65.06-104.05-110.48-1.32-10.45-6.27-49.8,17.41-79.05,2.48-3.07,4.58-5.15,6.36-6.92C85.58,14.86,129.61,15.13,129.61,15.13c5.55.05,53.45,1.1,81.7,39.92,19.21,26.4,18.41,55.23,17.95,66.11Z" fill="#e0b990" stroke="#231f20" stroke-miterlimit="10"/>
  <path d="m210.92,55.41c-.5-.94-1.52-2.8-3-5-11.47-17.09-30.01-24.38-38.69-27.79-4.43-1.74-9.27-3.21-9.27-3.21-2.89-.87-6.83-2.06-11.99-3-2.96-.54-11.49-2.05-20.86-1.39-1.38.1-3.56.22-7.9.76-.89.11-3.44.29-7.06.88-5.07.82-8.84,1.89-12.25,2.92-15.24,4.59-23.72,9.11-23.72,9.11-5.65,2.9-20.13,10.56-31.79,26.72-5.73,7.94-9.03,15.51-10.97,21-.33,1.33-.66,2.67-1,4,7.59-4.41,13.44-4.96,17.42-4.63,3.24.27,8.58,1.69,14.05.76,1.83-.31,4.36-.77,7.02-2.28,3.54-2.01,4.09-4.06,6.15-6.08,3.97-3.89,10.16-4.95,15.48-5.27,9.86-.6,15.95,7.03,24.9,9.83,25.08,7.85,49.43-10.25,50.92-11.39,2.05-1.52,4.1-3.04,6.15-4.56.29.35.75.85,1.38,1.39,2.02,1.73,4.82,2.94,12.11,3.23,6.53.26,9.79.38,13.96-1,4.14-1.37,7.14-3.48,8.97-5Z" fill="#483a31" stroke="#231f20" stroke-miterlimit="10"/>
  <ellipse id="l2" cx="179.67" cy="108.89" rx="27.39" ry="14.64" fill="#fff" stroke="#231f20" stroke-miterlimit="10" stroke-width=".75"/>
  <ellipse id="l1" cx="78.61" cy="108.89" rx="27.39" ry="14.64" fill="#fff" stroke="#231f20" stroke-miterlimit="10" stroke-width=".75"/>
  <circle id="e8" cx="77.66" cy="109.36" r="5.67"/>
  <circle id="e7" cx="179.67" cy="109.36" r="5.67"/>
  <path id="m2" d="m96.42,187.73c-1.32,4.3,15.88,12.49,33.2,13.13,20.08.75,39.04-8.68,37.73-13.13-2.28-7.77-68.51-7.89-70.94,0Z" fill="#dd544a" stroke="#231f20" stroke-miterlimit="10" stroke-width=".75"/>
  <g id="glasses1">
    <line x1="20" y1="115" x2="33" y2="80" fill="none" stroke="#231f20" stroke-miterlimit="10" stroke-width="2"/>
    <g id="glasses">
      <line x1="234.5" y1="114.5" x2="221" y2="73" fill="none" stroke="#231f20" stroke-miterlimit="10" stroke-width="2"/>
      <ellipse cx="63.5" cy="115.5" rx="44" ry="28" fill="#e0d7d1" stroke="#231f20" stroke-miterlimit="10"/>
      <ellipse cx="191.5" cy="115.5" rx="44" ry="28" fill="#e0d7d1" stroke="#231f20" stroke-miterlimit="10"/>
      <line x1="107.5" y1="115.5" x2="147.5" y2="115.5" fill="none" stroke="#231f20" stroke-miterlimit="10" stroke-width="5"/>
    </g>
  </g>
  <path id="m2-2" data-name="m2" d="m88.47,190.42c3.69,1.82,28.8,13.69,54.71,1.66,13.53-6.28,21.27-16.3,24.79-21.62" fill="none" opacity="0" stroke="#231f20" stroke-miterlimit="10" stroke-width="5"/>
</svg>