<?xml version="1.0" encoding="UTF-8"?>
<svg id="Layer_1" data-name="Layer 1" xmlns="http://www.w3.org/2000/svg" viewBox="0 0 256 256">
  <g id="face4">
    <path d="m229.25,119.26c-2.12,50.15-37.74,122-97.28,123.73-58.3,1.69-98.33-65.06-104.05-110.48-1.32-10.45-6.27-49.8,17.41-79.05,2.48-3.07,4.58-5.15,6.36-6.92C85.58,12.95,129.61,13.22,129.61,13.22c5.55.05,53.45,1.1,81.7,39.92,19.21,26.4,18.41,55.23,17.95,66.11Z" fill="#e0b990" stroke="#231f20" stroke-miterlimit="10"/>
    <path d="m210.92,53.5c-.5-.94-1.52-2.8-3-5-11.47-17.09-30.01-24.38-38.69-27.79-4.43-1.74-9.27-3.21-9.27-3.21-2.89-.87-6.83-2.06-11.99-3-2.96-.54-11.49-2.05-20.86-1.39-1.38.1-3.56.22-7.9.76-.89.11-3.44.29-7.06.88-5.07.82-8.84,1.89-12.25,2.92-15.24,4.59-23.72,9.11-23.72,9.11-5.65,2.9-20.13,10.56-31.79,26.72-5.73,7.94-9.03,15.51-10.97,21-.33,1.33-.66,2.67-1,4,7.59-4.41,13.44-4.96,17.42-4.63,3.24.27,8.58,1.69,14.05.76,1.83-.31,4.36-.77,7.02-2.28,3.54-2.01,4.09-4.06,6.15-6.08,3.97-3.89,10.16-4.95,15.48-5.27,9.86-.6,15.95,7.03,24.9,9.83,25.08,7.85,49.43-10.25,50.92-11.39,2.05-1.52,4.1-3.04,6.15-4.56.29.35.75.85,1.38,1.39,2.02,1.73,4.82,2.94,12.11,3.23,6.53.26,9.79.38,13.96-1,4.14-1.37,7.14-3.48,8.97-5Z" fill="#483a31" stroke="#231f20" stroke-miterlimit="10"/>
    <ellipse cx="179.67" cy="106.98" rx="27.39" ry="14.64" fill="#fff" stroke="#231f20" stroke-miterlimit="10" stroke-width=".75"/>
    <ellipse cx="78.61" cy="106.98" rx="27.39" ry="14.64" fill="#fff" stroke="#231f20" stroke-miterlimit="10" stroke-width=".75"/>
    <circle cx="77.66" cy="112.45" r="5.67"/>
    <circle cx="180.67" cy="112.45" r="5.67"/>
    <path id="lash1" d="m120.02,191.8c-.35,3.55,4.24,10.3,8.88,10.83,5.37.62,10.44-7.16,10.09-10.83-.61-6.4-18.31-6.5-18.96,0Z" stroke="#231f20" stroke-miterlimit="10" stroke-width=".75"/>
    <path id="lash2" d="m106,107c-1.31,3.22-9.49,1.05-27,1-16.9-.05-26.21,1.93-27.5-1.5-.64-1.71,1.08-3.78,2.5-5.5,7.45-8.99,20.61-8.99,25-9,4.85-.02,13.64-.04,21,6,1.11.91,7.24,5.95,6,9Z" fill="#d6a374" stroke="#231f20" stroke-miterlimit="10" stroke-width=".5"/>
    <path d="m207,107c-1.31,3.22-9.49,1.05-27,1-16.9-.05-26.21,1.93-27.5-1.5-.64-1.71,1.08-3.78,2.5-5.5,7.45-8.99,20.61-8.99,25-9,4.85-.02,13.64-.04,21,6,1.11.91,7.24,5.95,6,9Z" fill="#d6a374" stroke="#231f20" stroke-miterlimit="10" stroke-width=".5"/>
    <g id="lashes" opacity="0">
      <ellipse cx="179.47" cy="106.76" rx="27.39" ry="14.64" fill="#d6a374" stroke="#231f20" stroke-miterlimit="10" stroke-width=".75"/>
      <ellipse cx="78.41" cy="106.76" rx="27.39" ry="14.64" fill="#d6a374" stroke="#231f20" stroke-miterlimit="10" stroke-width=".75"/>
    </g>
    <g id="zes" opacity="0">
      <path d="m207.17,74.35l9.52-8.34c.91-.76,1.78-1.43,2.74-2.2v-.06h-11.39v-2.08h16.04l-.04,1.61-9.39,8.23c-.87.79-1.74,1.49-2.7,2.22v.06h12.3v2.05h-17.08v-1.49Z" fill="#231f20"/>
      <path d="m227.72,56.5l5.02-4.49c.48-.41.94-.77,1.44-1.18v-.03h-6v-1.12h8.45l-.02.87-4.95,4.43c-.46.43-.92.8-1.42,1.2v.03h6.48v1.1h-9v-.8Z" fill="#231f20"/>
    </g>
  </g>
</svg>